<svg width="136" height="33" viewBox="0 0 136 33" fill="none" xmlns="http://www.w3.org/2000/svg">
<g clip-path="url(#clip0_6244_418)">
<path d="M0 0.800903H5.26753L7.16214 10.6805L9.93609 0.800903H15.1824L17.9648 10.668L19.8637 0.800903H25.1015L21.1466 18.4496H15.7091L12.5614 7.33714L9.42633 18.4496H3.98888L0 0.800903Z" fill="#18181B"/>
<path d="M26.8984 0.800903H41.7537V4.57053H32.4548V7.37476H41.0825V10.973H32.4548V14.4543H42.0255V18.4496H26.8984V0.800903Z" fill="#18181B"/>
<path d="M44.0434 12.6113L49.3194 12.2853C49.4341 13.1295 49.6677 13.7689 50.0161 14.2119C50.5853 14.9266 51.4009 15.2818 52.4629 15.2818C53.253 15.2818 53.8648 15.0979 54.2938 14.7343C54.7229 14.3707 54.9353 13.9445 54.9353 13.4639C54.9353 12.9832 54.7314 12.5988 54.3235 12.2352C53.9157 11.8758 52.9684 11.5331 51.4859 11.2113C49.056 10.6722 47.3228 9.95752 46.2863 9.06735C45.2413 8.17719 44.7188 7.04045 44.7188 5.66132C44.7188 4.75444 44.9864 3.8977 45.5217 3.09112C46.0569 2.28454 46.8598 1.6493 47.9345 1.18959C49.005 0.729884 50.4791 0.49585 52.3482 0.49585C54.6421 0.49585 56.3881 0.913768 57.5903 1.75378C58.7925 2.5938 59.5104 3.92696 59.7398 5.75744L54.5147 6.05834C54.3745 5.2643 54.0857 4.68757 53.6396 4.32398C53.1936 3.96457 52.5819 3.78069 51.796 3.78069C51.1503 3.78069 50.666 3.91442 50.3389 4.18189C50.0118 4.44936 49.8504 4.77951 49.8504 5.164C49.8504 5.444 49.9863 5.69893 50.254 5.92043C50.5131 6.15446 51.1333 6.37178 52.1146 6.57238C54.5359 7.08642 56.2734 7.60464 57.3226 8.13122C58.3719 8.65779 59.1323 9.30975 59.6123 10.0871C60.0881 10.8644 60.3302 11.7379 60.3302 12.6991C60.3302 13.8316 60.0116 14.8764 59.3744 15.8293C58.7372 16.7863 57.8494 17.5093 56.7067 18.0024C55.564 18.4956 54.1239 18.7422 52.3865 18.7422C49.3364 18.7422 47.2209 18.1654 46.0484 17.0078C44.876 15.8502 44.209 14.3833 44.0519 12.6029L44.0434 12.6113Z" fill="#18181B"/>
<path d="M61.851 0.800903H78.7029V5.15979H73.0488V18.4496H67.5051V5.15979H61.851V0.800903Z" fill="#18181B"/>
<path d="M81.2007 0.800903H96.056V4.57053H86.7571V7.37476H95.3848V10.973H86.7571V14.4543H96.3278V18.4496H81.2007V0.800903Z" fill="#18181B"/>
<path d="M99.3822 18.4496V0.800903H108.622C110.334 0.800903 111.646 0.947175 112.551 1.23554C113.456 1.5239 114.186 2.05884 114.743 2.84452C115.299 3.62603 115.576 4.57888 115.576 5.70308C115.576 6.68101 115.363 7.52521 114.938 8.23567C114.514 8.94613 113.932 9.52286 113.188 9.96167C112.712 10.2417 112.067 10.4757 111.243 10.6596C111.901 10.8769 112.385 11.0942 112.687 11.3115C112.891 11.4578 113.188 11.7671 113.575 12.2393C113.961 12.7116 114.22 13.0793 114.352 13.3343L117.037 18.4496H110.771L107.806 13.0543C107.432 12.3563 107.097 11.9008 106.803 11.6919C106.404 11.4202 105.95 11.2823 105.444 11.2823H104.956V18.4454H99.3864L99.3822 18.4496ZM104.951 7.95148H107.288C107.538 7.95148 108.031 7.87208 108.758 7.70909C109.123 7.63805 109.424 7.45416 109.658 7.15326C109.892 6.85654 110.006 6.51385 110.006 6.12936C110.006 5.56099 109.824 5.12218 109.454 4.8171C109.089 4.51202 108.396 4.36157 107.385 4.36157H104.951V7.94731V7.95148Z" fill="#18181B"/>
<path d="M118.842 0.800903H124.021L130.775 10.5677V0.800903H136V18.4496H130.775L124.055 8.75807V18.4496H118.842V0.800903Z" fill="#18181B"/>
<path d="M28.4871 24.1083H29.3665L33.16 32.358H32.1489L31.1719 30.1932H26.6393L25.6537 32.358H24.6894L28.4829 24.1083H28.4871ZM30.8066 29.3531L28.9162 25.1865L27.0131 29.3531H30.8066Z" fill="#18181B"/>
<path d="M35.0885 28.931V24.1667H36.0273V28.8725C36.0273 30.6403 36.9916 31.6349 38.5719 31.6349C40.1522 31.6349 41.0825 30.7239 41.0825 28.931V24.1667H42.0213V28.86C42.0213 31.2463 40.6279 32.4875 38.5464 32.4875C36.4649 32.4875 35.0843 31.2463 35.0843 28.931H35.0885Z" fill="#18181B"/>
<path d="M47.1614 25.0235H44.3662V24.1709H50.9081V25.0235H48.113V32.3621H47.1614V25.0235Z" fill="#18181B"/>
<path d="M52.4417 28.2874V28.2623C52.4417 26.0056 54.1663 24.0247 56.6982 24.0247C59.23 24.0247 60.9334 25.9805 60.9334 28.2373V28.2623C60.9334 30.5191 59.2087 32.5 56.6769 32.5C54.1451 32.5 52.4417 30.5442 52.4417 28.2874ZM59.9606 28.2874V28.2623C59.9606 26.4026 58.58 24.8814 56.6769 24.8814C54.7738 24.8814 53.4187 26.3775 53.4187 28.2415V28.2665C53.4187 30.1263 54.7993 31.6475 56.7024 31.6475C58.6055 31.6475 59.9606 30.1513 59.9606 28.2874Z" fill="#18181B"/>
<path d="M67.5476 28.2874V28.2623C67.5476 26.0139 69.2255 24.0247 71.7234 24.0247C73.1252 24.0247 73.9961 24.4217 74.8287 25.1112L74.2212 25.8133C73.5797 25.2617 72.8661 24.8772 71.6894 24.8772C69.8457 24.8772 68.5246 26.411 68.5246 28.2373V28.2623C68.5246 30.2182 69.799 31.6684 71.8211 31.6684C72.7726 31.6684 73.652 31.3048 74.2254 30.8493V28.814H71.6936V27.9823H75.1303V31.2463C74.3571 31.9233 73.1932 32.5 71.7871 32.5C69.1703 32.5 67.5518 30.6278 67.5518 28.2874H67.5476Z" fill="#18181B"/>
<path d="M77.9552 24.1667H81.5363C82.56 24.1667 83.3799 24.4718 83.9024 24.9859C84.306 25.3829 84.5439 25.9554 84.5439 26.599V26.6241C84.5439 27.9823 83.5923 28.7764 82.2839 29.0104L84.8412 32.3579H83.6858L81.2729 29.1734H78.894V32.3579H77.9552V24.1667ZM81.4513 28.3459C82.7002 28.3459 83.5923 27.7149 83.5923 26.6617V26.6366C83.5923 25.6295 82.8064 25.0235 81.4641 25.0235H78.894V28.3459H81.4513Z" fill="#18181B"/>
<path d="M86.9015 28.2874V28.2623C86.9015 26.0056 88.6262 24.0247 91.158 24.0247C93.6898 24.0247 95.3933 25.9805 95.3933 28.2373V28.2623C95.3933 30.5191 93.6686 32.5 91.1368 32.5C88.605 32.5 86.9015 30.5442 86.9015 28.2874ZM94.4162 28.2874V28.2623C94.4162 26.4026 93.0356 24.8814 91.1325 24.8814C89.2294 24.8814 87.8743 26.3775 87.8743 28.2415V28.2665C87.8743 30.1263 89.2549 31.6475 91.158 31.6475C93.0611 31.6475 94.4162 30.1513 94.4162 28.2874Z" fill="#18181B"/>
<path d="M97.9633 28.931V24.1667H98.9021V28.8725C98.9021 30.6403 99.8664 31.6349 101.447 31.6349C103.027 31.6349 103.957 30.7239 103.957 28.931V24.1667H104.896V28.86C104.896 31.2463 103.503 32.4875 101.421 32.4875C99.3397 32.4875 97.9591 31.2463 97.9591 28.931H97.9633Z" fill="#18181B"/>
<path d="M107.836 24.1667H110.954C112.831 24.1667 114.072 25.1489 114.072 26.7662V26.7913C114.072 28.5591 112.572 29.4701 110.801 29.4701H108.779V32.3621H107.84V24.1709L107.836 24.1667ZM110.831 28.6259C112.211 28.6259 113.116 27.8988 113.116 26.8247V26.7996C113.116 25.6295 112.224 25.0193 110.882 25.0193H108.775V28.6218H110.831V28.6259Z" fill="#18181B"/>
</g>
<defs>
<clipPath id="clip0_6244_418">
<rect width="136" height="32" fill="white" transform="translate(0 0.5)"/>
</clipPath>
</defs>
</svg>
